<svg xmlns="http://www.w3.org/2000/svg" width="40" height="40" viewBox="0 0 40 40"><defs><style>.a{fill:#b4ff00;}</style></defs><g transform="translate(0 0.003)"><g transform="translate(31 29.663)"><ellipse class="a" cx="4.5" cy="4" rx="4.5" ry="4"/></g><path class="a" d="M296.956,198.314v-.887a11.835,11.835,0,0,0-1.841-6.5,12.109,12.109,0,0,0-5.124-4.416,17.013,17.013,0,0,0-7.325-1.528,18.583,18.583,0,0,0-7.327,1.4,11.847,11.847,0,0,0-5.173,4.015,10.121,10.121,0,0,0-1.841,5.941c0,4.229,2.25,7.616,6.688,10.065a38.613,38.613,0,0,0,6.3,2.6,18.608,18.608,0,0,1,5.059,2.273,2.885,2.885,0,0,1,1.087,2.48,2.571,2.571,0,0,1-1.069,2.239,5.924,5.924,0,0,1-3.547.9c-5.5,0-5.715-3.072-5.715-5.25v-.833h-9.917v1.011a12.191,12.191,0,0,0,1.974,6.869,13.121,13.121,0,0,0,5.651,4.637,19.192,19.192,0,0,0,8.007,1.649c4.21,0,7.63-.987,10.165-2.933a9.986,9.986,0,0,0,3.954-8.346,10.8,10.8,0,0,0-3.21-7.943c-2.044-2.035-5.3-3.75-9.671-5.092a18.957,18.957,0,0,1-4.951-2.15,2.487,2.487,0,0,1-1.324-2.154,2.7,2.7,0,0,1,1.114-2.279,5.841,5.841,0,0,1,3.627-.966,5.406,5.406,0,0,1,3.719,1.148c.82.738.779,1.772.779,3.163v.887Z" transform="translate(-267.206 -184.983)"/></g></svg>